<svg xmlns="http://www.w3.org/2000/svg" viewBox="0 0 32 32" width="32" height="32">
  <defs>
    <linearGradient id="bg" x1="0%" y1="0%" x2="100%" y2="100%">
      <stop offset="0%" stop-color="#1a0a2e"/>
      <stop offset="100%" stop-color="#0f1729"/>
    </linearGradient>
    <linearGradient id="icon" x1="0%" y1="0%" x2="100%" y2="100%">
      <stop offset="0%" stop-color="#a855f7"/>
      <stop offset="100%" stop-color="#3b82f6"/>
    </linearGradient>
  </defs>

  <!-- Dark rounded background -->
  <rect width="32" height="32" rx="7" fill="url(#bg)"/>

  <!-- Cloud shape -->
  <path
    d="M23 19.5C23 22 21.2 23 19 23H10C7.8 23 6 21.5 6 19.5C6 17.8 7.1 16.4 8.7 16C8.5 10.5 12 9 15 9C17.5 9 20 10.5 20.5 13C22.5 13.2 24 15 23 17.5Z"
    fill="url(#icon)"
    opacity="0.25"
  />
  <path
    d="M23 19.5C23 22 21.2 23 19 23H10C7.8 23 6 21.5 6 19.5C6 17.8 7.1 16.4 8.7 16C8.5 10.5 12 9 15 9C17.5 9 20 10.5 20.5 13C22.5 13.2 24 15 23 17.5Z"
    fill="none"
    stroke="url(#icon)"
    stroke-width="1.4"
  />

  <!-- Upload arrow -->
  <line x1="14.5" y1="21" x2="14.5" y2="13.5" stroke="url(#icon)" stroke-width="1.6" stroke-linecap="round"/>
  <polyline points="11.5,16.5 14.5,13 17.5,16.5" fill="none" stroke="url(#icon)" stroke-width="1.6" stroke-linecap="round" stroke-linejoin="round"/>

  <!-- Accent dots -->
  <circle cx="22" cy="8"  r="1.1" fill="#c084fc" opacity="0.85"/>
  <circle cx="26" cy="6"  r="0.7" fill="#818cf8" opacity="0.65"/>
  <circle cx="26" cy="11" r="0.6" fill="#60a5fa" opacity="0.55"/>
</svg>
